<svg xmlns="http://www.w3.org/2000/svg" id="Layer_1" width="200" height="200" viewBox="0 0 200 200"><style>.st0,.st1{fill:#ffa200}.st1{fill-rule:evenodd;clip-rule:evenodd}</style><path class="st0" d="M15.5 128c0-17.6 15.8-31.9 35.3-31.9 19.5 0 35.3 14.3 35.3 31.9 0 17.6-15.8 31.9-35.3 31.9-19.5 0-35.3-14.3-35.3-31.9M65 60c.2.3.5.6.7 1 .7 1 1.2 2.1 1.4 3.3.3 1.3.2 2.5-.2 3.8v.2l.1.1c.9.7 1.6 1.6 2.1 2.6.5 1.1.9 2.2 1.1 3.3.1.9.2 1.8.2 2.8-.2 2.9-1 5.5-2.7 7.8-.8 1.2-1.9 2.2-3.1 3-.8.5-1.7.9-2.7 1-1.9.3-3.5-.2-5-1.3-1.1-.9-1.8-2-2.4-3.3-.4-1-.7-2-.8-3-.1-.8-.1-1.6-.1-2.4.1-2 .6-3.9 1.5-5.8.6-1.3 1.4-2.5 2.5-3.5.9-.9 1.9-1.6 3.1-2.1.9-.3 1.8-.5 2.7-.5.3 0 .6.1.9.1 0 0 0-.1.1-.1.4-.8.7-1.7.8-2.6.2-.9.2-1.7.1-2.6L65 60m24.1 30.2v.2c0 .7-.2 1.4-.3 2.1-.5 1.9-1.4 3.6-2.7 5-1 1.2-2.2 2.1-3.7 2.7-.7.3-1.4.5-2.2.6-1.7.1-3.3-.3-4.6-1.5-.9-.8-1.5-1.8-1.8-3-.2-.7-.4-1.5-.4-2.2-.1-1.9.3-3.7 1.1-5.4.7-1.5 1.7-2.8 2.9-3.9 1.1-.9 2.3-1.6 3.6-2 .7-.2 1.4-.3 2.1-.2.7 0 1.4.2 2.1.5 0 0 .1 0 .1.1 1.4-1.8 2.1-3.8 2.3-6.1 0 0 0 .1.1.1.4.9.7 1.9.8 2.9.2 1.7-.1 3.4-1 4.9v.2c.7.9 1 1.9 1.3 3 .1.4.1.7.1 1.1v.9zm-74.5-1.1c0-.2.1-.4.1-.7.2-1.4.6-2.7 1.4-3.8-.1-.4-.2-.8-.3-1.1-.2-.8-.2-1.6-.2-2.4.1-1.5.6-2.8 1.4-4.1 0 0 0-.1.1-.1 0 2.1.3 4 1.3 5.8.2-.1.4-.2.6-.2.7-.2 1.4-.3 2.1-.3 1.4 0 2.7.5 3.8 1.3 1.3.9 2.4 2 3.2 3.4.8 1.3 1.3 2.6 1.6 4.1.1.6.2 1.1.2 1.7 0 1.1-.1 2.1-.4 3.1-.3 1.1-.8 2.1-1.6 2.9-.9 1-2 1.6-3.2 1.8-1.3.2-2.6 0-3.8-.5-1.2-.5-2.3-1.4-3.2-2.4-1.3-1.5-2.2-3.2-2.7-5.1-.2-.6-.3-1.2-.3-1.9 0-.1 0-.2-.1-.3v-1.2zm20.8-21.3v-.9c0-1.4.3-2.6 1-3.8.6-1 1.3-1.9 2.2-2.7 0 0 .1 0 .1-.1 0 .1 0 .1-.1.2-.3.9-.6 1.8-.7 2.8 0 .4-.1.8-.1 1.3 0 .8.1 1.7.3 2.5v.1h.3c1.1.1 2.1.4 3.1 1s1.9 1.4 2.7 2.4c1.2 1.5 2 3.2 2.4 5 .2.9.4 1.9.4 2.9.1 1.7-.1 3.3-.7 4.9-.4 1.3-1.1 2.4-2 3.4-1 1-2.2 1.7-3.6 2-1.2.2-2.3 0-3.5-.4-1-.4-1.9-1-2.7-1.8-1.4-1.4-2.4-3-3.1-4.9-.4-1.1-.6-2.2-.8-3.4-.1-.8-.1-1.5 0-2.3.1-1.6.4-3.1 1.2-4.6.6-1.2 1.4-2.2 2.4-3 .5-.2.9-.4 1.2-.6m62 19.6c8.7-15.3 29.5-19.9 46.5-10.3 16.9 9.6 23.6 29.9 14.9 45.2-8.7 15.3-29.5 19.9-46.4 10.3-17.1-9.6-23.7-29.9-15-45.2M174 52.8c0 .4.1.8.1 1.2.1 1.2 0 2.4-.4 3.6-.4 1.2-1.1 2.3-2 3.2l-.1.1v.1c.4 1.1.6 2.2.5 3.3 0 1.2-.3 2.3-.7 3.4-.3.9-.7 1.7-1.2 2.5-1.6 2.4-3.6 4.3-6.2 5.5-1.3.6-2.7 1-4.2 1-1 0-1.9-.1-2.8-.4-1.8-.7-3-1.9-3.7-3.6-.5-1.3-.6-2.7-.4-4 .1-1 .4-2 .8-3 .3-.7.7-1.4 1.1-2.1 1.1-1.7 2.5-3.1 4.1-4.3 1.2-.8 2.5-1.4 3.8-1.8 1.2-.3 2.5-.5 3.7-.3.9.1 1.8.4 2.6.9.2.1.5.3.7.5 0 0 .1 0 .1-.1.7-.5 1.4-1.1 2-1.8.6-.7 1-1.4 1.4-2.2.4-.6.6-1.2.8-1.7m6 38.1c0 .1-.1.1-.1.2-.4.6-.8 1.1-1.3 1.6-1.4 1.4-3 2.4-4.8 3-1.5.5-3 .7-4.5.5-.8-.1-1.5-.3-2.2-.6-1.6-.7-2.7-1.9-3.2-3.6-.4-1.1-.4-2.3-.1-3.5.2-.7.4-1.5.8-2.1.9-1.7 2.1-3 3.6-4.1 1.4-1 2.9-1.6 4.5-2 1.4-.3 2.8-.3 4.1.1.7.2 1.3.4 1.9.8.6.4 1.2.9 1.6 1.4l.1.1c2.1-.8 3.7-2.3 5.1-4.2v.1c-.1 1-.3 2-.7 2.9-.7 1.6-1.7 2.9-3.3 3.8h-.1v.1c.1 1.1 0 2.2-.4 3.2-.1.4-.2.7-.4 1 0 .1-.1.1-.1.2-.2.5-.3.8-.5 1.1m-64.2-37.7c.1-.2.3-.3.4-.5.8-1.1 1.9-2 3.1-2.6l.3-1.2c.2-.8.6-1.5 1-2.1.8-1.2 1.9-2.1 3.2-2.9 0 0 .1 0 .1-.1-1.1 1.8-1.7 3.6-1.8 5.7.2 0 .4 0 .6.1.7.1 1.4.4 2 .8 1.2.7 2.1 1.8 2.7 3 .7 1.4 1.1 3 1.1 4.6 0 1.5-.2 2.9-.7 4.3-.2.5-.4 1.1-.7 1.6-.5.9-1.1 1.8-1.8 2.5-.8.8-1.7 1.4-2.8 1.8-1.2.4-2.5.4-3.7 0-1.3-.4-2.3-1.3-3.1-2.4-.8-1.1-1.3-2.3-1.6-3.6-.4-1.9-.3-3.9.2-5.8.2-.6.4-1.2.7-1.8 0-.1.1-.2.1-.3.3-.4.5-.8.7-1.1m28.6-8.3c.1-.2.3-.5.4-.8.7-1.2 1.6-2.1 2.7-2.8 1-.6 2.1-1 3.2-1.2h.1l-.1.1c-.7.6-1.4 1.3-2 2.1-.2.3-.5.7-.7 1.1-.4.7-.7 1.5-.9 2.3v.1c.1.1.2.1.3.2.9.6 1.6 1.4 2.2 2.4.6 1.1 1 2.2 1.1 3.4.3 1.9.1 3.7-.4 5.6-.3.9-.6 1.8-1 2.7-.8 1.5-1.7 2.8-3 3.9-1 .9-2.1 1.6-3.4 2-1.4.4-2.7.4-4.1-.1-1.1-.4-2.1-1.1-2.8-2.1-.7-.9-1.1-1.8-1.5-2.9-.6-1.9-.6-3.8-.3-5.7.2-1.2.5-2.3 1-3.3.3-.7.7-1.4 1.1-2 .9-1.3 1.9-2.5 3.3-3.4 1.1-.7 2.3-1.3 3.6-1.4.4-.2.8-.2 1.2-.2"/></svg>