<svg xmlns="http://www.w3.org/2000/svg" xmlns:xlink="http://www.w3.org/1999/xlink" version="1.1" id="Layer_1" x="0" y="0" width="200" height="200" viewBox="0 0 200 200" xml:space="preserve" enable-background="new 0 0 200 200"><style type="text/css">
	.st0{fill:#FFA200;}
	.st1{fill-rule:evenodd;clip-rule:evenodd;fill:#FFA200;}
</style><path class="st0" d="M15.5 128c0-17.6 15.8-31.9 35.3-31.9 19.5 0 35.3 14.3 35.3 31.9 0 17.6-15.8 31.9-35.3 31.9C31.3 159.9 15.5 145.6 15.5 128M65 60c0.2 0.3 0.5 0.6 0.7 1 0.7 1 1.2 2.1 1.4 3.3 0.3 1.3 0.2 2.5-0.2 3.8 0 0 0 0.1 0 0.2 0 0 0.1 0.1 0.1 0.1 0.9 0.7 1.6 1.6 2.1 2.6 0.5 1.1 0.9 2.2 1.1 3.3 0.1 0.9 0.2 1.8 0.2 2.8 -0.2 2.9-1 5.5-2.7 7.8 -0.8 1.2-1.9 2.2-3.1 3 -0.8 0.5-1.7 0.9-2.7 1 -1.9 0.3-3.5-0.2-5-1.3 -1.1-0.9-1.8-2-2.4-3.3 -0.4-1-0.7-2-0.8-3 -0.1-0.8-0.1-1.6-0.1-2.4 0.1-2 0.6-3.9 1.5-5.8 0.6-1.3 1.4-2.5 2.5-3.5 0.9-0.9 1.9-1.6 3.1-2.1 0.9-0.3 1.8-0.5 2.7-0.5 0.3 0 0.6 0.1 0.9 0.1 0 0 0-0.1 0.1-0.1 0.4-0.8 0.7-1.7 0.8-2.6 0.2-0.9 0.2-1.7 0.1-2.6C65.2 61.2 65.1 60.6 65 60 65 60 65 60 65 60M89.1 90.2c0 0.1 0 0.2 0 0.2 0 0.7-0.2 1.4-0.3 2.1 -0.5 1.9-1.4 3.6-2.7 5 -1 1.2-2.2 2.1-3.7 2.7 -0.7 0.3-1.4 0.5-2.2 0.6 -1.7 0.1-3.3-0.3-4.6-1.5 -0.9-0.8-1.5-1.8-1.8-3 -0.2-0.7-0.4-1.5-0.4-2.2 -0.1-1.9 0.3-3.7 1.1-5.4 0.7-1.5 1.7-2.8 2.9-3.9 1.1-0.9 2.3-1.6 3.6-2 0.7-0.2 1.4-0.3 2.1-0.2 0.7 0 1.4 0.2 2.1 0.5 0 0 0.1 0 0.1 0.1 1.4-1.8 2.1-3.8 2.3-6.1 0 0 0 0.1 0.1 0.1 0.4 0.9 0.7 1.9 0.8 2.9 0.2 1.7-0.1 3.4-1 4.9 0 0 0 0 0 0.1 0 0 0 0.1 0 0.1 0.7 0.9 1 1.9 1.3 3 0.1 0.4 0.1 0.7 0.1 1.1 0 0.1 0 0.1 0 0.2V90.2zM14.6 89.1c0-0.2 0.1-0.4 0.1-0.7 0.2-1.4 0.6-2.7 1.4-3.8 0 0 0 0 0 0 -0.1-0.4-0.2-0.8-0.3-1.1 -0.2-0.8-0.2-1.6-0.2-2.4 0.1-1.5 0.6-2.8 1.4-4.1 0 0 0-0.1 0.1-0.1 0 2.1 0.3 4 1.3 5.8 0.2-0.1 0.4-0.2 0.6-0.2 0.7-0.2 1.4-0.3 2.1-0.3 1.4 0 2.7 0.5 3.8 1.3 1.3 0.9 2.4 2 3.2 3.4 0.8 1.3 1.3 2.6 1.6 4.1 0.1 0.6 0.2 1.1 0.2 1.7 0 1.1-0.1 2.1-0.4 3.1 -0.3 1.1-0.8 2.1-1.6 2.9 -0.9 1-2 1.6-3.2 1.8 -1.3 0.2-2.6 0-3.8-0.5 -1.2-0.5-2.3-1.4-3.2-2.4 -1.3-1.5-2.2-3.2-2.7-5.1 -0.2-0.6-0.3-1.2-0.3-1.9 0-0.1 0-0.2-0.1-0.3V89.1zM35.4 67.8c0-0.3 0-0.6 0-0.9 0-1.4 0.3-2.6 1-3.8 0.6-1 1.3-1.9 2.2-2.7 0 0 0.1 0 0.1-0.1 0 0.1 0 0.1-0.1 0.2 -0.3 0.9-0.6 1.8-0.7 2.8 0 0.4-0.1 0.8-0.1 1.3 0 0.8 0.1 1.7 0.3 2.5 0 0 0 0 0 0.1 0.1 0 0.2 0 0.3 0 1.1 0.1 2.1 0.4 3.1 1 1 0.6 1.9 1.4 2.7 2.4 1.2 1.5 2 3.2 2.4 5 0.2 0.9 0.4 1.9 0.4 2.9 0.1 1.7-0.1 3.3-0.7 4.9 -0.4 1.3-1.1 2.4-2 3.4 -1 1-2.2 1.7-3.6 2 -1.2 0.2-2.3 0-3.5-0.4 -1-0.4-1.9-1-2.7-1.8 -1.4-1.4-2.4-3-3.1-4.9 -0.4-1.1-0.6-2.2-0.8-3.4 -0.1-0.8-0.1-1.5 0-2.3 0.1-1.6 0.4-3.1 1.2-4.6 0.6-1.2 1.4-2.2 2.4-3C34.7 68.2 35.1 68 35.4 67.8M97.4 87.4c8.7-15.3 29.5-19.9 46.5-10.3 16.9 9.6 23.6 29.9 14.9 45.2 -8.7 15.3-29.5 19.9-46.4 10.3C95.3 123 88.7 102.7 97.4 87.4M174 52.8c0 0.4 0.1 0.8 0.1 1.2 0.1 1.2 0 2.4-0.4 3.6 -0.4 1.2-1.1 2.3-2 3.2 0 0-0.1 0.1-0.1 0.1 0 0 0 0.1 0 0.1 0.4 1.1 0.6 2.2 0.5 3.3 0 1.2-0.3 2.3-0.7 3.4 -0.3 0.9-0.7 1.7-1.2 2.5 -1.6 2.4-3.6 4.3-6.2 5.5 -1.3 0.6-2.7 1-4.2 1 -1 0-1.9-0.1-2.8-0.4 -1.8-0.7-3-1.9-3.7-3.6 -0.5-1.3-0.6-2.7-0.4-4 0.1-1 0.4-2 0.8-3 0.3-0.7 0.7-1.4 1.1-2.1 1.1-1.7 2.5-3.1 4.1-4.3 1.2-0.8 2.5-1.4 3.8-1.8 1.2-0.3 2.5-0.5 3.7-0.3 0.9 0.1 1.8 0.4 2.6 0.9 0.2 0.1 0.5 0.3 0.7 0.5 0 0 0.1 0 0.1-0.1 0.7-0.5 1.4-1.1 2-1.8 0.6-0.7 1-1.4 1.4-2.2C173.6 53.9 173.8 53.3 174 52.8 174 52.8 174 52.8 174 52.8M180 90.9c0 0.1-0.1 0.1-0.1 0.2 -0.4 0.6-0.8 1.1-1.3 1.6 -1.4 1.4-3 2.4-4.8 3 -1.5 0.5-3 0.7-4.5 0.5 -0.8-0.1-1.5-0.3-2.2-0.6 -1.6-0.7-2.7-1.9-3.2-3.6 -0.4-1.1-0.4-2.3-0.1-3.5 0.2-0.7 0.4-1.5 0.8-2.1 0.9-1.7 2.1-3 3.6-4.1 1.4-1 2.9-1.6 4.5-2 1.4-0.3 2.8-0.3 4.1 0.1 0.7 0.2 1.3 0.4 1.9 0.8 0.6 0.4 1.2 0.9 1.6 1.4 0 0 0.1 0.1 0.1 0.1 2.1-0.8 3.7-2.3 5.1-4.2 0 0.1 0 0.1 0 0.1 -0.1 1-0.3 2-0.7 2.9 -0.7 1.6-1.7 2.9-3.3 3.8 0 0 0 0-0.1 0 0 0 0 0.1 0 0.1 0.1 1.1 0 2.2-0.4 3.2 -0.1 0.4-0.2 0.7-0.4 1 0 0.1-0.1 0.1-0.1 0.2C180.3 90.3 180.2 90.6 180 90.9M115.8 53.2c0.1-0.2 0.3-0.3 0.4-0.5 0.8-1.1 1.9-2 3.1-2.6 0 0 0 0 0 0 0.1-0.4 0.2-0.8 0.3-1.2 0.2-0.8 0.6-1.5 1-2.1 0.8-1.2 1.9-2.1 3.2-2.9 0 0 0.1 0 0.1-0.1 -1.1 1.8-1.7 3.6-1.8 5.7 0.2 0 0.4 0 0.6 0.1 0.7 0.1 1.4 0.4 2 0.8 1.2 0.7 2.1 1.8 2.7 3 0.7 1.4 1.1 3 1.1 4.6 0 1.5-0.2 2.9-0.7 4.3 -0.2 0.5-0.4 1.1-0.7 1.6 -0.5 0.9-1.1 1.8-1.8 2.5 -0.8 0.8-1.7 1.4-2.8 1.8 -1.2 0.4-2.5 0.4-3.7 0 -1.3-0.4-2.3-1.3-3.1-2.4 -0.8-1.1-1.3-2.3-1.6-3.6 -0.4-1.9-0.3-3.9 0.2-5.8 0.2-0.6 0.4-1.2 0.7-1.8 0-0.1 0.1-0.2 0.1-0.3C115.4 53.9 115.6 53.5 115.8 53.2M144.4 44.9c0.1-0.2 0.3-0.5 0.4-0.8 0.7-1.2 1.6-2.1 2.7-2.8 1-0.6 2.1-1 3.2-1.2 0 0 0.1 0 0.1 0 -0.1 0.1-0.1 0.1-0.1 0.1 -0.7 0.6-1.4 1.3-2 2.1 -0.2 0.3-0.5 0.7-0.7 1.1 -0.4 0.7-0.7 1.5-0.9 2.3 0 0 0 0 0 0.1 0.1 0.1 0.2 0.1 0.3 0.2 0.9 0.6 1.6 1.4 2.2 2.4 0.6 1.1 1 2.2 1.1 3.4 0.3 1.9 0.1 3.7-0.4 5.6 -0.3 0.9-0.6 1.8-1 2.7 -0.8 1.5-1.7 2.8-3 3.9 -1 0.9-2.1 1.6-3.4 2 -1.4 0.4-2.7 0.4-4.1-0.1 -1.1-0.4-2.1-1.1-2.8-2.1 -0.7-0.9-1.1-1.8-1.5-2.9 -0.6-1.9-0.6-3.8-0.3-5.7 0.2-1.2 0.5-2.3 1-3.3 0.3-0.7 0.7-1.4 1.1-2 0.9-1.3 1.9-2.5 3.3-3.4 1.1-0.7 2.3-1.3 3.6-1.4C143.6 44.9 144 44.9 144.4 44.9"/></svg>