<svg xmlns="http://www.w3.org/2000/svg" id="logo-icon" width="350" height="100" viewBox="0 0 350 100"><style>.st0,.st1{fill:#ffa200}.st1{fill-rule:evenodd;clip-rule:evenodd}</style><path class="st0" d="M202.5 71.3c-.1 0 0 0 0 0 .2 0 .3-.1.4-.2l.1.2h-.5zm0-1l.1.2h-.1c-.2 0-.3.1-.4.2l-.1-.2.5-.2z"/><path transform="rotate(63.276 88.647 46.308)" class="st0" d="M88.5 46.2h.3v.3h-.3z"/><path class="st0" d="M189 64.5c-.5.3-1.1.4-1.8.4-2.6 0-4-1.8-4.3-5.3-.1-.3-.1-.5-.1-.8.1-.5 0-.8-.3-1.1 0-.2.1-.4.2-.5.1-.1.2-.2.2-.3 0-.2 0-.5-.1-1v-.8c.2-1.9.3-3.8.1-5.6 2.2-.8 4-1.3 5.2-1.5-.2-2.8-.3-4.4-.1-5-.1-3.1-.1-5.1.1-6.1h-1.4c-.2-.1-.5 0-.9.1s-.7.2-.8.2c-.1 0-.3 0-.5-.2-.2-.1-.4-.1-.5-.1 0 .3-.2.6-.6.8-.2-.2-.4-.3-.6-.5 0-.1.1-.1.1-.2s.1-.2.1-.2c.2.2.4.3.6.3-.2-.3-.3-.5-.3-.7h-.5c-.2 0-.3-.1-.3-.2v-12c-3.6 2.3-7.9 4.9-12.7 7.8-.2 1.7-.3 2.9-.3 3.8 0 .6-.4 1-1 1.2-.6.2-1.2.3-1.8.1V41c0 .1.1 1.1.2 3s.2 3.3.2 4.1c.1.2.3.4.3.5.5.1 1 .1 1.5.3.5.1.8.6.8 1.5V55l.3.4v12.9c0 .4.2 1.2.5 2.5 0 .1.1.7.2 1.9.1.8.3 1.4.6 1.8.6.9 1.5 1.7 2.8 2.7 1.3.9 2.3 1.4 3 1.5l.4.3c.1 0 .6-.1 1.5-.2s1.4-.2 1.5-.2c.1 0 .2.1.3.2 0 .1.1.2.2.2s.4 0 1-.1c.9-.1 2.3-.1 4.3-.1.5 0 .8-.1.9-.4.4-3.4.6-5.3.7-5.7 0-.4.3-1.5.6-3.2.3-1.4.4-2.5.4-3.3.3-.6.2-1.2.1-1.7m6.6 1.9h.6v1h-.6z"/><path class="st0" d="M322.3 41.7l.5-.1c-.2-.1-.3-.3-.5-.5.3-2.2.2-3.6-.2-4.1-1.1-.2-2.5.2-4.3 1.1-2.1 1.1-3.3 1.7-3.8 1.8-.6-1.3-.8-2-.8-2-.3-.3-.9-.5-1.9-.5h-12.1V49c.2 0 .4.1.6.3v7.5c-.1.1-.3.1-.6.1.3.7.4 1.2.4 1.6.3-.2.5-.4.6-.4 0-.4 0-.7.1-.7.2.5.2 1 .1 1.3l-.4-.2c-.5 1-.7 1.7-.6 2.3v12l.8-.2v.3c0 .2.1.2.3.2.1 0 .2 0 .2-.1s0-.1.2-.1c.4 0 .8.1 1.3.4.5.3.7.7.7 1.1 0 .2-.1.3-.2.4-.1 0-.3.1-.5.2s-.3.1-.4.1c0 .3-.1.6-.3.9-.2.3-.3.7-.2 1.1-.1 0-.2 0-.2-.1s-.1-.1-.2-.1c-.2 0-.3.1-.3.2s-.1.2-.1.2l.1 1.6c.2.1.4.3.4.4h.6c2.6-1 4.8-1.4 6.8-1.4 1.1 0 2.2.2 3.3.5 1.1.4 1.6.5 1.7.5l-.1-17.6c0-2.5 0-3.6.1-3.4.2-.3.3-.6.3-.9 0-1.9.9-3.4 2.7-4.5 1.6-1 3.6-1.5 6.1-1.5l.2-7c.1-1.1-.1-2-.4-2.3M193.8 27c0-4.7 4.2-8.5 9.4-8.5s9.4 3.8 9.4 8.5-4.2 8.5-9.4 8.5c-5.2-.1-9.4-3.9-9.4-8.5m13.1-18.1c.1.1.1.2.2.3.2.3.3.6.4.9.1.3 0 .7-.1 1 .2.2.4.4.6.7l.3.9c0 .2.1.5 0 .7 0 .8-.3 1.5-.7 2.1-.2.3-.5.6-.8.8-.2.1-.5.2-.7.3-.5.1-.9 0-1.3-.4-.3-.2-.5-.5-.6-.9-.1-.3-.2-.5-.2-.8v-.6c0-.5.2-1 .4-1.5.2-.3.4-.7.7-.9.2-.2.5-.4.8-.6.2-.1.5-.1.7-.1h.2c.1-.2.2-.4.2-.7v-.7c0-.2 0-.4-.1-.5m6.4 8s0 .1 0 0c0 .2 0 .4-.1.6-.1.5-.4.9-.7 1.3-.3.3-.6.6-1 .7-.2.1-.4.1-.6.1-.5 0-.9-.1-1.2-.4-.2-.2-.4-.5-.5-.8-.1-.2-.1-.4-.1-.6 0-.5.1-1 .3-1.4.2-.4.4-.8.8-1 .3-.2.6-.4 1-.5.2 0 .4-.1.6-.1.2 0 .4 0 .6.1.4-.5.6-1 .6-1.6.1.2.2.5.2.8.1.5 0 .9-.3 1.3.2.2.3.5.3.8v.7zm-19.7-.3v-.2c0-.4.2-.7.4-1 0-.1-.1-.2-.1-.3-.1-.2-.1-.4 0-.6 0-.4.2-.7.4-1.1 0 .5.1 1.1.3 1.5.1 0 .1 0 .1-.1.2-.1.4-.1.6-.1.4 0 .7.1 1 .3.4.2.6.5.9.9.2.3.3.7.4 1.1v.4c0 .3 0 .6-.1.8-.1.3-.2.6-.4.8-.2.3-.5.4-.9.5-.4.1-.7 0-1-.1-.3-.1-.6-.4-.8-.6-.4-.4-.6-.8-.7-1.4 0-.2-.1-.3-.1-.5v-.3zm5.5-5.6v-.2c0-.4.1-.7.3-1 .2-.3.4-.5.6-.7-.1.2-.1.5-.2.7v.3c0 .2 0 .4.1.7h.1c.3 0 .6.1.8.3.3.2.5.4.7.6.3.4.5.9.6 1.3.1.2.1.5.1.8 0 .4 0 .9-.2 1.3-.1.3-.3.6-.5.9-.3.3-.6.5-1 .5-.3.1-.6 0-.9-.1-.3-.1-.5-.3-.7-.5-.4-.4-.6-.8-.8-1.3-.1-.3-.2-.6-.2-.9v-.6c0-.4.1-.8.3-1.2.2-.3.4-.6.6-.8.1 0 .2-.1.3-.1m-76.3 16c0-4.7 4.2-8.5 9.4-8.5s9.4 3.8 9.4 8.5-4.2 8.5-9.4 8.5c-5.2-.1-9.4-3.9-9.4-8.5m84.7 31.9c.2-.3.5-.6.7-1V37.3H195V79h13.2v-2.5l-.3.6c-.1.2-.2.3-.3.5l-.1-.1c.3-.7.5-1.4.8-2.1v-6.9c-.4.5-.8.9-1.2 1.4-.7.7-1.1 1.7-1.7 2.5-.1.2-.2.3-.3.5h-.1c.3-.8.6-1.5.9-2.3.4-.9.7-1.9 1.1-2.8.4-.7.8-1.4 1.3-2.1v-5.5c-1.1 1.5-5.1 7.7-5.1 7.8-.1 0-.1 0-.2-.1 0 0 3.1-7.1 4.5-9"/><path class="st0" d="M207.2 65.3l.5.2-.4.9-.5-.2z"/><path class="st0" d="M204 63.9c0-.1 0-.3-.1-.4.1-.3.1-.6.1-.9v-.2c.1.3.2.5.2.7 0 .4-.1.6-.2.8m-3.7-.4c0 .1 0 .2.1.2l-.2.2c.1-.2.1-.3.1-.4m91.8 1.5c-.2-2.1-.3-3.2-.3-3.2-.7 1-2.6 2.2-5.6 3.6-3 1.4-5.3 2.1-6.8 2.1-.7 0-1.6-.1-2.6-.3-1.2-.3-1.9-.6-2.1-1L295 50.7c-1.1-2.7-2.7-5.2-4.9-7.5-2.3-2.5-4.8-4.1-7.3-4.8-1.9-.5-3.5-.8-4.8-.8-.1 0-.3.1-.5.2s-.4.2-.6.2c-.1-.2-.5-.3-1.3-.3-4.6 0-9.1 1.8-13.3 5.4-4.6 4-7 8.6-7.3 14 0 .3 0 .7-.1 1.2s-.1.8-.1.9c0 3.7 1 7.2 3.1 10.5 2.3 3.6 5.4 6.2 9.3 7.8 2.9 1.2 4.9 1.7 6 1.7.7 0 .9-.1.7-.3.3.2.5.3.6.3h4.9c.3 0 .4-.1.4-.3 1.9 0 4.2-.5 7.1-1.7 2.1-.9 4.2-1.8 6.2-2.7v-2.6c0-.1-.1-.3-.3-.6-.2-.5-.4-2.6-.7-6.3m-24.9-24.2s.1 0 0 0m6.8 14c-3.1 2.3-4.8 3.5-4.9 3.5-.3 0-.6-.1-.9-.4 0-.3-.1-.6-.1-1 0-1.3.4-2.6 1.1-4 .7-1.3 1.8-2.4 3-3.1 1.3-.7 2.2-1 2.7-1 .1 0 .6.1 1.4.4 1 .3 1.7.6 2.2.7.1.3.2.5.2.6 0 .6-1.5 2-4.7 4.3m-66.7 11.1v.6c0-.1-.1-.3 0-.6-.1-.3-.1-.6 0-.6v.6m42.2-28.5c.1 0 .1 0 0 0m-.1 33.8c0-1.1-.4-2.4-1.3-4 0-.1-.3-.5-.7-1-.4-.5-.6-.8-.6-1 0 0 .6-1 1.9-2.9.2-.4.3-.8.3-1 .3-.7.6-1.3.8-1.7.3-1.1.4-2.6.4-4.3 0-3.2-1.2-7.1-3.7-11.6-.2-.1-.3-.2-.5-.2 1.1-1.8 2.3-3.8 3.5-6.1-.7 0-5.4.1-14.3.1-.2 0-.9-.2-2.1-.5-1.2-.3-1.9-.5-2.1-.5 0 0-4.4-2.2-6.4-3.8 0 0 .3 3.3-.7 5.5-1 .4-1.7.7-2.3 1l-.5.6-.3-.3c-.7.5-1.2.9-1.6 1.2-.1.3-.2.4-.2.4-2.3 1.8-3.8 4.1-4.3 6.8-.2.3-.3.5-.4.6-.2 1.7-.3 2.9-.5 3.8.3-.2.6-.3.9-.5.5-.2.9-.5 1.4-.7h.1c-.7.6-1.4 1.2-2 1.8-.3.2-.5.5-.8.8V55c.3 0 .4.1.4.4.2 0 .4-.1.6-.3 0 0 .1.2.1.4-.5.2-.7.4-.8.4-.1 0-.1.2-.2.4s-.1.4-.1.5c0 .2 0 .5.1.7.3-.3.5-.6.8-.9 1-1.2 2-2.2 3.2-3.1-2-3.3 2.7-8.8 6.1-11v-.1h.1c.4-.3.9-.5 1.2-.7l9.3.7c-2.6.7-4.8.9-6.9 1.8v.4h-.3v-.3c-.8.4-1.6.8-2.5 1.4-2.3 1.6-3.7 4.6-5.4 6.6.3-.2.5-.3.8-.5-.3.3-.6.6-.8 1-1.5 2-3 4-4.5 5.9-.2.3-.5.6-.8.9.3.9.6 1.9 1 3l.3.6c.5-.6 1-1.2 1.4-1.9.6-1 1.4-1.9 2.3-2.7 1.1-1 2.1-1.9 3.3-2.8-.1.2-.2.4-.4.5-1.3 1.5-2.4 3.1-3.4 4.9-.3.6-.8 1.2-1.2 1.7-.4.6-.9 1.2-1.3 1.8.1.2.2.3.3.5.3.6.8 1.4 1.5 2.2.1-.1.2-.3.3-.5.7-1.5 1.8-2.8 3.1-3.9.6-.5 1.1-1.1 1.7-1.6.1-.1.3-.2.4-.3l.1.1c-1.4 2.1-2.7 4.2-4.1 6.3l-.6.9c.8.9 2 1.8 3.5 2.6.5.3 1.7.7 3.7 1.3 2.3.7 4 1 4.9 1 .1 0 .9-.1 2.2-.3 1.3-.2 2-.3 2.2-.3.7 0 1.1.1 1.3.2.2.1.2.5.2 1.3 0 3-2 4.5-6.1 4.5-3 0-6.1-1.3-9.5-3.8-.3-.2-1-.3-2-.2-.5.9-1.6 2.7-3.3 5.4-1.4 2.2-2.1 3.3-2.1 3.5 0 1.1 1.6 2.3 4.8 3.8 1.7.7 3.4 1.4 5.2 2 1.5.6 2.4 1 2.7 1 4.2.3 6.1.4 5.5.4 3.9 0 7.5-1.1 10.9-3.3 3.8-2.5 6.1-5.8 6.8-9.8.1-.1.2-.2.3-.2.2-2.2.3-3.1.3-2.7 0-1.5-.2-2.6-.7-3.3.1.2.1 0 .1-.3m-1.7-21.8s-.1 0 0 0c-.1 0 0 0 0 0m-33.2 3.8c.1 0 .1 0 0 0zm21.1 5.2c-1 1.3-2.3 1.9-4 1.9-.9 0-1.6-.1-2.2-.4-.7-.4-1.2-.7-1.5-1-.9-1.3-1.3-2.3-1.3-2.9 0-3.8 1.6-5.6 4.8-5.6 1.2 0 2.2.2 3.1.6.1 0 .5.6 1.3 1.5.8 1 1.2 1.6 1.2 1.9-.1 1.5-.6 2.8-1.4 4m-117.7 25h.6v.3h-.6zm16.8-29.1l-.4-.4-.4.2c-.1 0-.3-.2-.5-.4 0 .1 0 .2-.1.4-.1-.1-.2-.2-.4-.2 0 .1-.1.6-.4 1.3.6 0 .9 0 .9.1 0-.1-.1-.4-.3-.7.5 0 1-.1 1.6-.3m.5-4.3v-.9c-.3 0-.5-.1-.6-.2 0 .2.1.5.3.6.1.3.2.4.3.5m-.7 9.8h.6v.3h-.6zm.9-12.8c-.1-.1-.2-.4-.2-.6-.3.3-.5.5-.5.6h.7zm-.2 5.2h-.2l-.3.8h.3zm1 1.2l-.7-.4-.1.3.8.3zm-.1 2.1l-.3-.3-.1.2.2.3zm0 11.9h-.2l-.2.5.2.1zm-.2-2.7h.6v.3h-.6zm.1-16.6h.4v.5h-.4zm1.7 11.2l-.3-.1-.2.4.2.2z"/><path transform="rotate(56.329 138.9 48.758)" class="st0" d="M138.5 48.6h.8v.3h-.8z"/><path class="st0" d="M140.3 54.1l-.9-.6-.1.2 1 .6zm.4 3.3h.5v.3h-.5z"/><path class="st0" d="M143.1 53.3c-.1 0-.2 0-.3-.1V37.3c-.1 0-.2 0-.4.1s-.4.1-.5.1c-.1 0-.3-.1-.5-.2s-.4-.2-.5-.2c0 0-.6 0-1.8.1s-1.9.1-2.3.1H130c-.2.1-.3.2-.4.2V44c0 .1.1.4.2.7.1.3.2.6.2.7 0 .7-.1 4.7-.1 12.1v4.4l.1.1v.6c.1 9-5.3 3.9-5.4 3.9-.5-.7-.9-1.2-1.2-1.7-.3-.7-.7-1.3-1.1-2-.6-1-1.2-1.5-1.8-1.5-.4 0-.7.1-.8.3-.5 1-1.5 2.6-3 4.8-1.3 1.9-2 2.9-2 2.9 0 1 1.2 2.6 3.5 4.8 2.2 2.1 3.7 3.3 4.5 3.6.8.2 1.6.4 2.2.4.1 0 .8 0 1.9.1 1.1.1 1.8.1 1.9.1 3.9 0 7.2-1.4 10.1-4.1 2.8-2.7 4.2-5.9 4.2-9.4.1-.2.2-.3.3-.3l-.2-11.2zm-33.2 11.5c-.2-2.1-.3-3.2-.3-3.2-.7 1-2.6 2.2-5.6 3.6s-5.3 2.1-6.8 2.1c-.7 0-1.6-.1-2.6-.3-1.2-.3-1.9-.6-2.1-1l20.3-15.4c-1.1-2.7-2.7-5.2-4.9-7.5-2.3-2.5-4.8-4.1-7.3-4.8-1.9-.5-3.5-.8-4.8-.8-.1 0-.3.1-.5.2s-.4.2-.6.2c-.1-.2-.5-.3-1.3-.3-4.6 0-9.1 1.8-13.3 5.4-4.6 4-7 8.6-7.3 14 0 .3 0 .7-.1 1.2s-.1.8-.1.9c0 3.7 1 7.2 3.1 10.5 2.3 3.6 5.4 6.2 9.3 7.7 2.9 1.2 4.9 1.7 6 1.7.6 0 .9-.1.7-.3.3.2.5.3.6.3h4.9c.3 0 .4-.1.4-.3 1.9 0 4.2-.5 7.1-1.7 2.1-.9 4.2-1.8 6.2-2.7v-2.6c0-.1-.1-.3-.3-.6-.2-.6-.4-2.6-.7-6.3m-9.4-22.9l.3.3-.2.1-.2-.3.1-.1zm-14.2-.8h.3v.7h-.3v-.7zm-1.2 1.7h-.7l.7-.6v.6zm-.1-1.2l-.4.2c.3-.5.4-.9.4-1.2l.4.8s-.1 0-.4.2m6.8 13c-3.1 2.3-4.8 3.5-4.9 3.5-.3 0-.6-.1-.9-.4 0-.3-.1-.6-.1-1 0-1.3.4-2.6 1.1-4 .7-1.3 1.8-2.4 3-3.1s2.2-1 2.7-1c.1 0 .6.1 1.4.4 1 .3 1.7.6 2.2.7.1.3.2.5.2.6 0 .6-1.5 2-4.7 4.3m-.1-13.2c0 .8-1.3 1.5-2.9 1.5s-2.8-.7-2.8-1.5 1.3-1.5 2.9-1.5 2.8.7 2.8 1.5m-2.5-.9c0 .5-.5 1-1.2 1s-1.2-.4-1.2-1c0-.5.5-1 1.2-1s1.2.4 1.2 1m15 1.4c0 .8-.6 1.5-1.4 1.5s-1.4-.7-1.4-1.5.6-1.5 1.4-1.5 1.4.7 1.4 1.5M66.6 79.1H51.8V54c0-.5 0-1-.1-1.5s-.3-1-.8-1.7c-.1-.2-.8-.5-1.8-.8-1.1-.3-1.7-.5-2-.5l-.5.3c-.5 0-1.1.2-1.8.7-.7.5-1.1 1-1.4 1.5-.2.1-.4.4-.6.8-.3 2.4-.5 3.4-.5 3 0 1.1.1 2.8.2 5.1s.2 4 .2 5.1l-.2 11.1c-.2.6-.2 1.3 0 2.2H28.1c-.3-.2-.4-.4-.5-.8 0-.2 0-.8.2-1.7 0-.4 0-1.5-.1-3.2v-3.5c.2 0 .3-.1.3-.4 0 0-.1-.1-.3-.1 0-1.1 0-1.7-.1-2l-.5-48.9h14.8v18.2c0 .8.4 1.2 1 1.2.1 0 .6-.3 1.5-.8.9-.6 1.6-.9 1.9-1 1.9-.8 4-1.3 6.4-1.3 2 0 4.1.4 6.5 1.2 2.7.9 4.3 1.9 5 3.1.5.6 1.2 1.5 1.9 2.8.1.5.2 2.2.2 5.3 0 1 0 2.4.1 4.4s.1 3 .1 3.1v24.2zm-38.2-9h-.5v.4h.5v-.4zm.5-24.1l-.3-.1-.2.5.3.2.2-.6zm.6-17.8c0-.2-.2-.5-.5-.9 0 .3-.1.5-.2.7.2.1.4.2.7.2m.2 12.6c-.2-.6-.6-.9-.9-.9 0 .2 0 .4.1.6.1.3.1.5.1.6.3 0 .5-.1.7-.3m-.2-6.1l-.1-.2-.4.2v.2l.5-.2zm.9-5.1l-.5-.5-.1.1.5.5.1-.1zm3.1 46.5H33v-.4h.5v.4zm.6-30.8v-.8c-.2 0-.3-.1-.5-.2v1.1h.5zm1.9 6.4c0 .1-.3.2-.8.2.2 0 .3.1.5.3 0-.1 0-.2.1-.3.2-.1.2-.1.2-.2m.3 18.8c-.2-.5-.4-.7-.7-.7v.8c.5 0 .7-.1.7-.1m.7-26.7h-.4v.7h.4v-.7zm.2.9h-.5v.4h.5v-.4zm1.4 21.4s-.1-.2-.6-.6c-.2.2-.2.3-.2.5s.1.3.4.2c.4 0 .6-.1.4-.1m4-21.2h-.4v.5h.4v-.5zm22.3-.8l-.1-.3-.3.2.2.3.2-.2z"/></svg>